<svg xmlns="http://www.w3.org/2000/svg" width="760" height="336" viewBox="0 0 760 336" role="img" aria-label="Repo views → visitors → clones → installs → runs">
<rect x="0.5" y="0.5" width="759" height="335" rx="12" fill="#0d1117" stroke="#30363d"/>
<g font-family="-apple-system, 'Segoe UI', Helvetica, Arial, sans-serif">
<text x="24" y="30" font-size="11" letter-spacing="1.5" fill="#8b949e">ACQUISITION FUNNEL · THE DROP-OFFS ARE THE POINT</text>
<text x="24" y="54" font-size="19" font-weight="700" fill="#d2a8ff">Repo views → visitors → clones → installs → runs</text>
<line x1="24" y1="66" x2="736" y2="66" stroke="#21262d"/>
<text x="24" y="92" font-size="12" fill="#8b949e">views (14d)</text>
<text x="736" y="92" font-size="13" fill="#c9d1d9" font-weight="700" text-anchor="end">7,354</text>
<rect x="24" y="100" width="712" height="8" rx="4" fill="#21262d"/><rect x="24" y="100" width="542" height="8" rx="4" fill="#58a6ff"/>
<text x="24" y="134" font-size="12" fill="#8b949e">unique visitors</text>
<text x="736" y="134" font-size="13" fill="#c9d1d9" font-weight="700" text-anchor="end">2,323</text>
<text x="640" y="134" font-size="10" fill="#8b949e" text-anchor="end">32% of previous</text>
<rect x="24" y="142" width="712" height="8" rx="4" fill="#21262d"/><rect x="24" y="142" width="171" height="8" rx="4" fill="#58a6ff"/>
<text x="24" y="176" font-size="12" fill="#8b949e">clones (14d)</text>
<text x="736" y="176" font-size="13" fill="#c9d1d9" font-weight="700" text-anchor="end">8,938</text>
<text x="640" y="176" font-size="10" fill="#8b949e" text-anchor="end">385% of previous</text>
<rect x="24" y="184" width="712" height="8" rx="4" fill="#21262d"/><rect x="24" y="184" width="659" height="8" rx="4" fill="#58a6ff"/>
<text x="24" y="218" font-size="12" fill="#8b949e">npm installs (30d)</text>
<text x="736" y="218" font-size="13" fill="#c9d1d9" font-weight="700" text-anchor="end">9,662</text>
<text x="640" y="218" font-size="10" fill="#8b949e" text-anchor="end">108% of previous</text>
<rect x="24" y="226" width="712" height="8" rx="4" fill="#21262d"/><rect x="24" y="226" width="712" height="8" rx="4" fill="#58a6ff"/>
<text x="24" y="260" font-size="12" fill="#8b949e">free runs served</text>
<text x="736" y="260" font-size="13" fill="#c9d1d9" font-weight="700" text-anchor="end">127</text>
<text x="640" y="260" font-size="10" fill="#8b949e" text-anchor="end">1% of previous</text>
<rect x="24" y="268" width="712" height="8" rx="4" fill="#21262d"/><rect x="24" y="268" width="9" height="8" rx="4" fill="#3fb950"/>
<text x="736" y="322" text-anchor="end" font-size="11" fill="#8b949e">traffic as of last snapshot · set PROFILE_TOKEN to refresh</text>
</g></svg>
