<svg xmlns="http://www.w3.org/2000/svg" width="760" height="230" viewBox="0 0 760 230" role="img" aria-label="When the commits happen">
<rect x="0.5" y="0.5" width="759" height="229" rx="12" fill="#0d1117" stroke="#30363d"/>
<g font-family="-apple-system, 'Segoe UI', Helvetica, Arial, sans-serif">
<text x="24" y="30" font-size="11" letter-spacing="1.5" fill="#8b949e">A DAY IN THE LIFE · LAST 500 COMMITS BY HOUR (UTC)</text>
<text x="24" y="54" font-size="19" font-weight="700" fill="#d2a8ff">When the commits happen</text>
<line x1="24" y1="66" x2="736" y2="66" stroke="#21262d"/>
<rect x="24" y="188" width="22" height="2" rx="3" fill="#d29922"/><text x="35" y="206" font-size="10" fill="#8b949e" text-anchor="middle" font-family="ui-monospace, SFMono-Regular, Menlo, Consolas, monospace">00</text><rect x="53.6" y="190" width="22" height="0" rx="3" fill="#d29922"/><rect x="83.2" y="190" width="22" height="0" rx="3" fill="#d29922"/><rect x="112.80000000000001" y="190" width="22" height="0" rx="3" fill="#d29922"/><text x="123.80000000000001" y="206" font-size="10" fill="#8b949e" text-anchor="middle" font-family="ui-monospace, SFMono-Regular, Menlo, Consolas, monospace">03</text><rect x="142.4" y="188" width="22" height="2" rx="3" fill="#d29922"/><rect x="172" y="171" width="22" height="19" rx="3" fill="#d29922"/><rect x="201.60000000000002" y="185" width="22" height="5" rx="3" fill="#58a6ff"/><text x="212.60000000000002" y="206" font-size="10" fill="#8b949e" text-anchor="middle" font-family="ui-monospace, SFMono-Regular, Menlo, Consolas, monospace">06</text><rect x="231.20000000000002" y="152" width="22" height="38" rx="3" fill="#58a6ff"/><rect x="260.8" y="101" width="22" height="89" rx="3" fill="#58a6ff"/><rect x="290.40000000000003" y="112" width="22" height="78" rx="3" fill="#58a6ff"/><text x="301.40000000000003" y="206" font-size="10" fill="#8b949e" text-anchor="middle" font-family="ui-monospace, SFMono-Regular, Menlo, Consolas, monospace">09</text><rect x="320" y="110" width="22" height="80" rx="3" fill="#58a6ff"/><rect x="349.6" y="118" width="22" height="72" rx="3" fill="#58a6ff"/><rect x="379.20000000000005" y="154" width="22" height="36" rx="3" fill="#58a6ff"/><text x="390.20000000000005" y="206" font-size="10" fill="#8b949e" text-anchor="middle" font-family="ui-monospace, SFMono-Regular, Menlo, Consolas, monospace">12</text><rect x="408.8" y="171" width="22" height="19" rx="3" fill="#58a6ff"/><rect x="438.40000000000003" y="159" width="22" height="31" rx="3" fill="#58a6ff"/><rect x="468" y="168" width="22" height="22" rx="3" fill="#58a6ff"/><text x="479" y="206" font-size="10" fill="#8b949e" text-anchor="middle" font-family="ui-monospace, SFMono-Regular, Menlo, Consolas, monospace">15</text><rect x="497.6" y="163" width="22" height="27" rx="3" fill="#58a6ff"/><rect x="527.2" y="177" width="22" height="13" rx="3" fill="#58a6ff"/><rect x="556.8000000000001" y="177" width="22" height="13" rx="3" fill="#58a6ff"/><text x="567.8000000000001" y="206" font-size="10" fill="#8b949e" text-anchor="middle" font-family="ui-monospace, SFMono-Regular, Menlo, Consolas, monospace">18</text><rect x="586.4" y="145" width="22" height="45" rx="3" fill="#58a6ff"/><rect x="616" y="152" width="22" height="38" rx="3" fill="#58a6ff"/><rect x="645.6" y="90" width="22" height="100" rx="3" fill="#d2a8ff"/><text x="656.6" y="206" font-size="10" fill="#8b949e" text-anchor="middle" font-family="ui-monospace, SFMono-Regular, Menlo, Consolas, monospace">21</text><text x="656.6" y="84" font-size="10" fill="#c9d1d9" text-anchor="middle">64</text><rect x="675.2" y="151" width="22" height="39" rx="3" fill="#d29922"/><rect x="704.8000000000001" y="173" width="22" height="17" rx="3" fill="#d29922"/>
<text x="736" y="216" text-anchor="end" font-size="11" fill="#8b949e">the late ones are the honest ones</text>
</g></svg>
